<?xml version="1.0" standalone="no"?>
<!DOCTYPE svg PUBLIC "-//W3C//DTD SVG 20010904//EN"
 "http://www.w3.org/TR/2001/REC-SVG-20010904/DTD/svg10.dtd">
<svg version="1.0" xmlns="http://www.w3.org/2000/svg"
 width="1280.000000pt" height="545.000000pt" viewBox="0 0 1280.000000 545.000000"
 preserveAspectRatio="xMidYMid meet">

<g transform="translate(0.000000,545.000000) scale(0.100000,-0.100000)"
fill="currentColor" stroke="none">
<path d="M2843 3600 c-60 -12 -114 -43 -164 -93 -66 -66 -92 -126 -97 -223 -5
-93 6 -136 53 -209 37 -57 470 -505 489 -505 6 0 117 109 246 243 257 265 285
305 296 413 16 156 -80 314 -219 360 -95 32 -239 11 -299 -43 -16 -15 -23 -13
-75 15 -47 25 -158 56 -182 51 -3 -1 -25 -5 -48 -9z"/>
<path d="M7367 3283 c-4 -3 -7 -237 -7 -520 l0 -513 115 0 115 0 0 520 0 520
-108 0 c-60 0 -112 -3 -115 -7z"/>
<path d="M8520 3190 l0 -100 115 0 115 0 0 100 0 100 -115 0 -115 0 0 -100z"/>
<path d="M9807 3283 c-4 -3 -7 -237 -7 -520 l0 -513 115 0 115 0 0 115 c0 103
2 119 22 145 12 17 25 30 29 30 4 0 62 -65 128 -145 l122 -145 130 0 130 0
-18 23 c-10 13 -90 110 -178 216 -88 105 -161 196 -163 200 -1 5 63 78 142
162 l146 154 -133 3 -132 3 -112 -118 -113 -118 0 258 0 257 -108 0 c-60 0
-112 -3 -115 -7z"/>
<path d="M4520 2765 l0 -515 120 0 120 0 0 200 0 200 195 0 195 0 0 -200 0
-200 115 0 115 0 0 515 0 515 -115 0 -115 0 0 -205 0 -205 -195 0 -195 0 0
205 0 205 -120 0 -120 0 0 -515z"/>
<path d="M7760 2765 l0 -515 315 0 315 0 0 105 0 105 -197 2 -198 3 -3 408 -2
407 -115 0 -115 0 0 -515z"/>
<path d="M5865 3019 c-168 -24 -312 -166 -335 -330 -30 -211 95 -387 315 -444
117 -30 244 -9 346 56 l62 40 -62 63 -62 63 -52 -18 c-59 -21 -158 -24 -208
-8 -41 14 -76 44 -95 82 l-15 27 272 0 272 0 -5 98 c-6 117 -35 192 -101 260
-91 94 -199 130 -332 111z m145 -214 c29 -15 64 -52 73 -77 6 -17 -6 -18 -153
-18 -88 0 -160 2 -160 5 0 4 7 19 14 34 37 70 145 97 226 56z"/>
<path d="M6663 3006 c-60 -19 -104 -49 -157 -106 -125 -133 -136 -356 -26
-516 100 -144 331 -196 459 -103 l41 29 0 -30 0 -30 115 0 115 0 0 380 0 380
-115 0 -115 0 0 -30 0 -29 -52 32 c-46 29 -60 32 -137 34 -51 2 -103 -3 -128
-11z m241 -209 c55 -31 81 -85 81 -167 0 -139 -85 -211 -220 -186 -43 8 -103
59 -121 103 -18 42 -18 125 0 166 40 95 168 137 260 84z"/>
<path d="M9288 3010 c-43 -13 -95 -48 -123 -83 l-25 -32 0 58 0 57 -120 0
-120 0 0 -380 0 -380 120 0 120 0 0 223 c0 201 2 225 19 253 50 82 165 120
223 75 15 -12 32 -39 38 -59 5 -20 10 -139 10 -264 l0 -228 116 0 115 0 -3
273 c-3 269 -3 273 -29 327 -55 117 -134 171 -248 169 -37 0 -78 -4 -93 -9z"/>
<path d="M8520 2630 l0 -380 115 0 115 0 0 380 0 380 -115 0 -115 0 0 -380z"/>
<path d="M2179 2929 c-6 -12 -9 -28 -6 -38 3 -9 28 -96 56 -195 61 -210 81
-254 157 -335 88 -95 186 -145 368 -186 97 -23 123 -38 135 -81 7 -27 6 -47
-6 -86 -20 -60 -10 -83 33 -83 59 0 132 152 141 295 10 153 -36 283 -128 363
-51 44 -87 62 -239 117 -58 21 -98 42 -127 69 -56 52 -82 60 -105 31 -54 -66
14 -191 132 -243 54 -24 100 -55 100 -68 0 -15 -62 -10 -105 10 -63 28 -135
116 -204 249 -75 145 -121 202 -161 202 -20 0 -33 -7 -41 -21z"/>
<path d="M3965 2914 c-19 -20 -65 -95 -102 -167 -97 -187 -182 -267 -282 -267
-47 0 -15 33 74 78 103 51 145 109 145 196 0 35 -5 48 -19 56 -30 16 -38 13
-85 -30 -44 -41 -120 -80 -197 -100 -69 -19 -156 -67 -200 -111 -83 -83 -129
-241 -109 -377 21 -151 93 -279 151 -270 30 4 35 28 19 94 -25 102 0 126 168
168 142 35 241 85 318 162 79 78 114 150 165 339 23 83 46 167 52 188 14 46 2
71 -37 75 -21 3 -35 -5 -61 -34z"/>
</g>
</svg>
