<?xml version="1.0" standalone="no"?>
<!DOCTYPE svg PUBLIC "-//W3C//DTD SVG 20010904//EN"
 "http://www.w3.org/TR/2001/REC-SVG-20010904/DTD/svg10.dtd">
<svg version="1.0" xmlns="http://www.w3.org/2000/svg"
 width="270.000000pt" height="270.000000pt" viewBox="0 0 270.000000 270.000000"
 preserveAspectRatio="xMidYMid meet">

<g transform="translate(0.000000,270.000000) scale(0.100000,-0.100000)"
fill="currentColor" stroke="none">
<path d="M1083 2120 c-60 -12 -114 -43 -164 -93 -66 -66 -92 -126 -97 -223 -5
-93 6 -136 53 -209 37 -57 470 -505 489 -505 6 0 117 109 246 243 257 265 285
305 296 413 16 156 -80 314 -219 360 -95 32 -239 11 -299 -43 -16 -15 -23 -13
-75 15 -47 25 -158 56 -182 51 -3 -1 -25 -5 -48 -9z"/>
<path d="M419 1449 c-6 -12 -9 -28 -6 -38 3 -9 28 -96 56 -195 61 -210 81
-254 157 -335 88 -95 186 -145 368 -186 97 -23 123 -38 135 -81 7 -27 6 -47
-6 -86 -20 -60 -10 -83 33 -83 59 0 132 152 141 295 10 153 -36 283 -128 363
-51 44 -87 62 -239 117 -58 21 -98 42 -127 69 -56 52 -82 60 -105 31 -54 -66
14 -191 132 -243 54 -24 100 -55 100 -68 0 -15 -62 -10 -105 10 -63 28 -135
116 -204 249 -75 145 -121 202 -161 202 -20 0 -33 -7 -41 -21z"/>
<path d="M2205 1434 c-19 -20 -65 -95 -102 -167 -97 -187 -182 -267 -282 -267
-47 0 -15 33 74 78 103 51 145 109 145 196 0 35 -5 48 -19 56 -30 16 -38 13
-85 -30 -44 -41 -120 -80 -197 -100 -69 -19 -156 -67 -200 -111 -83 -83 -129
-241 -109 -377 21 -151 93 -279 151 -270 30 4 35 28 19 94 -25 102 0 126 168
168 142 35 241 85 318 162 79 78 114 150 165 339 23 83 46 167 52 188 14 46 2
71 -37 75 -21 3 -35 -5 -61 -34z"/>
</g>
</svg>
